<svg xmlns="http://www.w3.org/2000/svg" width="24" height="24" viewBox="0 0 24 24" fill="none">
<path fill-rule="evenodd" clip-rule="evenodd" d="M2 12.5C2 12.9721 2.09268 13.4306 2.27553 13.8626C2.45199 14.2795 2.70443 14.6537 3.02581 14.9749C3.34719 15.296 3.72167 15.5483 4.13879 15.7246C4.57113 15.9073 5.02989 16 5.50235 16C5.97475 16 6.43351 15.9073 6.86585 15.7246C7.28302 15.5483 7.65745 15.296 7.97883 14.9749C8.30026 14.6537 8.55265 14.2795 8.72911 13.8626C8.80334 13.6871 8.86278 13.5073 8.9071 13.324H17.4318V14.611C17.4318 14.9231 17.6849 15.176 17.9972 15.176H18.9283C19.2405 15.176 19.4936 14.9231 19.4936 14.611V13.324H19.9243H20.0174C20.405 13.324 20.0763 13.324 20.3886 13.324H21.2401C21.5523 13.324 22.4518 13.324 22.3563 13.2874H22.419H22.4081L22.1843 13.3129C22.6397 13.3129 23 12.9551 23 12.5C23 12.0449 22.6309 11.676 22.1755 11.676H8.9071C8.86278 11.4927 8.80334 11.3129 8.72911 11.1374C8.55265 10.7205 8.30026 10.3463 7.97883 10.0251C7.65745 9.70396 7.28302 9.45169 6.86585 9.2754C6.43351 9.09267 5.97475 9 5.50235 9C5.02989 9 4.57113 9.09267 4.13879 9.2754C3.72167 9.45169 3.34719 9.70396 3.02581 10.0251C2.70443 10.3463 2.45199 10.7205 2.27553 11.1374C2.09268 11.5694 2 12.0279 2 12.5ZM3.64902 12.5C3.64902 11.4788 4.48041 10.648 5.50235 10.648C6.52423 10.648 7.35562 11.4788 7.35562 12.5C7.35562 13.5212 6.52423 14.352 5.50235 14.352C4.48041 14.352 3.64902 13.5212 3.64902 12.5Z" fill="#30B230"/>
</svg>